REM DIRINDEX 1\2,1\3,1\4
REM DIRNAME cjc151,folder01,folder02,folder03
TITLE ""
FILE "133 133_TOEFL_3900.mp3" MP3
  TRACK 01 AUDIO
    TITLE "2:cjc151_5779"
    INDEX 01 00:00:00
  TRACK 02 AUDIO
    TITLE "0:"
    INDEX 01 00:01:22
  TRACK 03 AUDIO
    TITLE "3:cjc151_5780"
    INDEX 01 00:02:71
  TRACK 04 AUDIO
    TITLE "0:"
    INDEX 01 00:07:13
  TRACK 05 AUDIO
    TITLE "2:cjc151_5781"
    INDEX 01 00:08:68
  TRACK 06 AUDIO
    TITLE "0:"
    INDEX 01 00:09:73
  TRACK 07 AUDIO
    TITLE "3:cjc151_5782"
    INDEX 01 00:11:52
  TRACK 08 AUDIO
    TITLE "0:"
    INDEX 01 00:14:74
  TRACK 09 AUDIO
    TITLE "2:cjc151_5783"
    INDEX 01 00:16:51
  TRACK 10 AUDIO
    TITLE "0:"
    INDEX 01 00:17:69
  TRACK 11 AUDIO
    TITLE "3:cjc151_5784"
    INDEX 01 00:19:48
  TRACK 12 AUDIO
    TITLE "0:"
    INDEX 01 00:23:65
  TRACK 13 AUDIO
    TITLE "2:cjc151_5785"
    INDEX 01 00:25:45
  TRACK 14 AUDIO
    TITLE "0:"
    INDEX 01 00:26:71
  TRACK 15 AUDIO
    TITLE "3:cjc151_5786"
    INDEX 01 00:28:49
  TRACK 16 AUDIO
    TITLE "0:"
    INDEX 01 00:32:48
  TRACK 17 AUDIO
    TITLE "2:cjc151_5787"
    INDEX 01 00:34:28
  TRACK 18 AUDIO
    TITLE "0:"
    INDEX 01 00:35:53
  TRACK 19 AUDIO
    TITLE "3:cjc151_5788"
    INDEX 01 00:37:30
  TRACK 20 AUDIO
    TITLE "0:"
    INDEX 01 00:42:29
  TRACK 21 AUDIO
    TITLE "2:cjc151_5789"
    INDEX 01 00:44:07
  TRACK 22 AUDIO
    TITLE "0:"
    INDEX 01 00:45:43
  TRACK 23 AUDIO
    TITLE "3:cjc151_5790"
    INDEX 01 00:47:23
  TRACK 24 AUDIO
    TITLE "0:"
    INDEX 01 00:52:37
  TRACK 25 AUDIO
    TITLE "2:cjc151_5791"
    INDEX 01 00:54:13
  TRACK 26 AUDIO
    TITLE "0:"
    INDEX 01 00:55:40
  TRACK 27 AUDIO
    TITLE "3:cjc151_5792"
    INDEX 01 00:57:17
  TRACK 28 AUDIO
    TITLE "0:"
    INDEX 01 01:00:64
  TRACK 29 AUDIO
    TITLE "2:cjc151_5793"
    INDEX 01 01:02:42
  TRACK 30 AUDIO
    TITLE "0:"
    INDEX 01 01:03:55
  TRACK 31 AUDIO
    TITLE "3:cjc151_5794"
    INDEX 01 01:05:32
  TRACK 32 AUDIO
    TITLE "0:"
    INDEX 01 01:10:24
  TRACK 33 AUDIO
    TITLE "2:cjc151_5795"
    INDEX 01 01:12:01
  TRACK 34 AUDIO
    TITLE "0:"
    INDEX 01 01:13:10
  TRACK 35 AUDIO
    TITLE "3:cjc151_5796"
    INDEX 01 01:14:65
  TRACK 36 AUDIO
    TITLE "0:"
    INDEX 01 01:19:42
  TRACK 37 AUDIO
    TITLE "2:cjc151_5797"
    INDEX 01 01:21:27
  TRACK 38 AUDIO
    TITLE "0:"
    INDEX 01 01:23:62
  TRACK 39 AUDIO
    TITLE "3:cjc151_5798"
    INDEX 01 01:25:43
  TRACK 40 AUDIO
    TITLE "0:"
    INDEX 01 01:28:63
  TRACK 41 AUDIO
    TITLE "2:cjc151_5799"
    INDEX 01 01:30:42
  TRACK 42 AUDIO
    TITLE "0:"
    INDEX 01 01:31:61
  TRACK 43 AUDIO
    TITLE "3:cjc151_5800"
    INDEX 01 01:33:40
  TRACK 44 AUDIO
    TITLE "0:"
    INDEX 01 01:38:04
  TRACK 45 AUDIO
    TITLE "2:cjc151_5801"
    INDEX 01 01:39:59
  TRACK 46 AUDIO
    TITLE "0:"
    INDEX 01 01:41:05
  TRACK 47 AUDIO
    TITLE "3:cjc151_5802"
    INDEX 01 01:42:57
  TRACK 48 AUDIO
    TITLE "0:"
    INDEX 01 01:48:03
  TRACK 49 AUDIO
    TITLE "2:cjc151_5803"
    INDEX 01 01:49:53
  TRACK 50 AUDIO
    TITLE "0:"
    INDEX 01 01:50:56
  TRACK 51 AUDIO
    TITLE "3:cjc151_5804"
    INDEX 01 01:52:51
  TRACK 52 AUDIO
    TITLE "0:"
    INDEX 01 01:56:47
  TRACK 53 AUDIO
    TITLE "2:cjc151_5805"
    INDEX 01 01:58:38
  TRACK 54 AUDIO
    TITLE "0:"
    INDEX 01 01:59:42
  TRACK 55 AUDIO
    TITLE "3:cjc151_5806"
    INDEX 01 02:01:21
  TRACK 56 AUDIO
    TITLE "0:"
    INDEX 01 02:06:01
  TRACK 57 AUDIO
    TITLE "2:cjc151_5807"
    INDEX 01 02:07:53
  TRACK 58 AUDIO
    TITLE "0:"
    INDEX 01 02:09:01
  TRACK 59 AUDIO
    TITLE "3:cjc151_5808"
    INDEX 01 02:10:55
  TRACK 60 AUDIO
    TITLE "0:"
    INDEX 01 02:14:53
  TRACK 61 AUDIO
    TITLE "2:cjc151_5809"
    INDEX 01 02:16:32
  TRACK 62 AUDIO
    TITLE "0:"
    INDEX 01 02:17:59
  TRACK 63 AUDIO
    TITLE "3:cjc151_5810"
    INDEX 01 02:19:39
  TRACK 64 AUDIO
    TITLE "0:"
    INDEX 01 02:25:02
  TRACK 65 AUDIO
    TITLE "2:cjc151_5811"
    INDEX 01 02:26:56
  TRACK 66 AUDIO
    TITLE "0:"
    INDEX 01 02:27:69
  TRACK 67 AUDIO
    TITLE "3:cjc151_5812"
    INDEX 01 02:29:47
  TRACK 68 AUDIO
    TITLE "0:"
    INDEX 01 02:33:66
  TRACK 69 AUDIO
    TITLE "2:cjc151_5813"
    INDEX 01 02:35:43
  TRACK 70 AUDIO
    TITLE "0:"
    INDEX 01 02:36:74
  TRACK 71 AUDIO
    TITLE "3:cjc151_5814"
    INDEX 01 02:38:54
  TRACK 72 AUDIO
    TITLE "0:"
    INDEX 01 02:42:32
  TRACK 73 AUDIO
    TITLE "2:cjc151_5815"
    INDEX 01 02:44:11
  TRACK 74 AUDIO
    TITLE "0:"
    INDEX 01 02:45:14
  TRACK 75 AUDIO
    TITLE "3:cjc151_5816"
    INDEX 01 02:46:69
  TRACK 76 AUDIO
    TITLE "0:"
    INDEX 01 02:50:41
  TRACK 77 AUDIO
    TITLE "2:cjc151_5817"
    INDEX 01 02:52:18
  TRACK 78 AUDIO
    TITLE "0:"
    INDEX 01 02:53:57
  TRACK 79 AUDIO
    TITLE "3:cjc151_5818"
    INDEX 01 02:55:36
  TRACK 80 AUDIO
    TITLE "0:"
    INDEX 01 02:59:54
  TRACK 81 AUDIO
    TITLE "2:cjc151_5819"
    INDEX 01 03:01:35
  TRACK 82 AUDIO
    TITLE "0:"
    INDEX 01 03:02:48
  TRACK 83 AUDIO
    TITLE "3:cjc151_5820"
    INDEX 01 03:04:25
  TRACK 84 AUDIO
    TITLE "0:"
    INDEX 01 03:08:25
  TRACK 85 AUDIO
    TITLE "2:cjc151_5821"
    INDEX 01 03:10:05
  TRACK 86 AUDIO
    TITLE "0:"
    INDEX 01 03:11:18
  TRACK 87 AUDIO
    TITLE "3:cjc151_5822"
    INDEX 01 03:11:47
  TRACK 88 AUDIO
    TITLE "0:"
    INDEX 01 03:15:31
